<svg width="507" height="151" viewBox="0 0 507 151" fill="none" xmlns="http://www.w3.org/2000/svg">
<path d="M487.843 150.443H19.2333C8.92395 150.443 0.489014 142.008 0.489014 131.699V19.2325C0.489014 8.92315 8.92395 0.48848 19.2333 0.48848H487.843C498.152 0.48848 506.587 8.92315 506.587 19.2325V131.699C506.587 142.008 498.152 150.443 487.843 150.443Z" fill="#100F0D"/>
<path d="M487.843 0.48969H19.2333C8.92395 0.48969 0.489014 8.92435 0.489014 19.2337V131.701C0.489014 142.009 8.92395 150.444 19.2333 150.444H487.843C498.152 150.444 506.587 142.009 506.587 131.701V19.2337C506.587 8.92435 498.152 0.48969 487.843 0.48969ZM487.843 3.48702C496.524 3.48702 503.587 10.551 503.587 19.2337V131.701C503.587 140.382 496.524 147.446 487.843 147.446H19.2333C10.551 147.446 3.48795 140.382 3.48795 131.701V19.2337C3.48795 10.551 10.551 3.48702 19.2333 3.48702H487.843Z" fill="#A2A2A1"/>
<path d="M178.255 38.8896C178.255 42.0309 177.324 44.5323 175.461 46.3976C173.345 48.6163 170.588 49.7256 167.197 49.7256C163.951 49.7256 161.191 48.6016 158.92 46.3509C156.647 44.0989 155.512 41.3069 155.512 37.9776C155.512 34.6456 156.647 31.8563 158.92 29.6043C161.191 27.3536 163.951 26.2269 167.197 26.2269C168.809 26.2269 170.351 26.5429 171.815 27.1709C173.279 27.8003 174.455 28.6363 175.333 29.6843L173.356 31.6629C171.867 29.8829 169.816 28.9936 167.197 28.9936C164.829 28.9936 162.783 29.8243 161.055 31.4896C159.327 33.1563 158.463 35.3176 158.463 37.9776C158.463 40.6376 159.327 42.7989 161.055 44.4656C162.783 46.1309 164.829 46.9616 167.197 46.9616C169.709 46.9616 171.804 46.1256 173.48 44.4509C174.568 43.3589 175.197 41.8416 175.365 39.8936H167.197V37.1923H178.097C178.203 37.7803 178.255 38.3443 178.255 38.8896Z" fill="white"/>
<path d="M178.255 38.8896H178.121C178.12 42.0056 177.203 44.4656 175.367 46.3042L175.365 46.3056H175.364C173.273 48.4976 170.56 49.5909 167.197 49.5922C163.981 49.5909 161.263 48.4842 159.015 46.2562C156.765 44.0269 155.647 41.2776 155.645 37.9776C155.647 34.6762 156.765 31.9282 159.015 29.7002C161.263 27.4709 163.981 26.3629 167.197 26.3602C168.792 26.3602 170.315 26.6722 171.763 27.2922C173.211 27.9162 174.368 28.7402 175.231 29.7696L175.333 29.6842L175.239 29.5896L173.261 31.5682L173.356 31.6629L173.459 31.5762C171.944 29.7656 169.845 28.8589 167.197 28.8602C164.799 28.8589 162.712 29.7069 160.963 31.3936C159.207 33.0842 158.328 35.2896 158.329 37.9776C158.328 40.6656 159.207 42.8709 160.963 44.5602C162.712 46.2482 164.799 47.0962 167.197 47.0949C169.739 47.0962 171.875 46.2442 173.575 44.5442C174.689 43.4269 175.329 41.8749 175.499 39.9056L175.511 39.7602H167.331V37.3256H178.097V37.1922L177.965 37.2162C178.071 37.7962 178.121 38.3522 178.121 38.8896H178.255H178.388C178.388 38.3349 178.336 37.7629 178.228 37.1682L178.208 37.0589H167.064V40.0269H175.365V39.8936L175.233 39.8829C175.065 41.8082 174.447 43.2909 173.385 44.3562C171.732 46.0056 169.68 46.8269 167.197 46.8282C164.861 46.8269 162.855 46.0122 161.148 44.3696C159.447 42.7269 158.597 40.6096 158.596 37.9776C158.597 35.3469 159.447 33.2282 161.148 31.5869C162.855 29.9429 164.861 29.1282 167.197 29.1269C169.787 29.1282 171.788 30.0002 173.253 31.7482L173.347 31.8589L175.513 29.6922L175.435 29.5976C174.541 28.5322 173.347 27.6842 171.868 27.0482C170.387 26.4136 168.827 26.0936 167.197 26.0936C163.92 26.0922 161.119 27.2349 158.827 29.5109C156.529 31.7842 155.377 34.6162 155.379 37.9776C155.377 41.3376 156.529 44.1709 158.827 46.4456C161.119 48.7202 163.92 49.8602 167.197 49.8589C170.616 49.8602 173.417 48.7362 175.557 46.4896L175.461 46.3976L175.555 46.4922C177.447 44.6002 178.389 42.0562 178.388 38.8896H178.255Z" fill="white"/>
<path d="M195.535 29.4948H185.291V36.6268H194.528V39.3281H185.291V46.4601H195.535V49.2241H182.403V26.7308H195.535V29.4948Z" fill="white"/>
<path d="M195.535 29.4948V29.3614H185.157V36.7601H194.395V39.1948H185.157V46.5934H195.401V49.0908H182.536V26.8641H195.401V29.4948H195.535H195.668V26.5974H182.269V49.3574H195.668V46.3268H185.424V39.4614H194.661V36.4934H185.424V29.6281H195.668V29.4948H195.535Z" fill="white"/>
<path d="M207.721 49.2241H204.829V29.4948H198.547V26.7308H214.004V29.4948H207.721V49.2241Z" fill="white"/>
<path d="M207.721 49.2241V49.0908H204.963V29.3614H198.68V26.8641H213.871V29.3614H207.588V49.2241H207.721H207.855V29.6281H214.137V26.5974H198.413V29.6281H204.696V49.3574H207.855V49.2241H207.721Z" fill="white"/>
<path d="M225.188 49.2241V26.7308H228.077V49.2241H225.188Z" fill="white"/>
<path d="M225.188 49.2241H225.321V26.8641H227.944V49.0908H225.188V49.2241V49.3574H228.211V26.5974H225.055V49.3574H225.188V49.2241Z" fill="white"/>
<path d="M240.897 49.2241H238.005V29.4948H231.724V26.7308H247.18V29.4948H240.897V49.2241Z" fill="white"/>
<path d="M240.897 49.2241V49.0908H238.139V29.3614H231.857V26.8641H247.047V29.3614H240.764V49.2241H240.897H241.031V29.6281H247.313V26.5974H231.591V29.6281H237.872V49.3574H241.031V49.2241H240.897Z" fill="white"/>
<path d="M262.083 44.4336C263.748 46.1203 265.784 46.9616 268.192 46.9616C270.601 46.9616 272.64 46.1203 274.303 44.4336C275.968 42.7483 276.803 40.5949 276.803 37.9776C276.803 35.3603 275.968 33.2069 274.303 31.5216C272.64 29.8349 270.601 28.9936 268.192 28.9936C265.784 28.9936 263.748 29.8349 262.083 31.5216C260.42 33.2069 259.585 35.3603 259.585 37.9776C259.585 40.5949 260.42 42.7483 262.083 44.4336ZM276.441 46.3176C274.229 48.5909 271.48 49.7256 268.192 49.7256C264.905 49.7256 262.156 48.5909 259.948 46.3176C257.736 44.0456 256.635 41.2656 256.635 37.9776C256.635 34.6896 257.736 31.9096 259.948 29.6376C262.156 27.3643 264.905 26.2269 268.192 26.2269C271.461 26.2269 274.204 27.3696 276.427 29.6523C278.645 31.9349 279.755 34.7096 279.755 37.9776C279.755 41.2656 278.648 44.0456 276.441 46.3176Z" fill="white"/>
<path d="M262.083 44.4336L261.988 44.5269C263.675 46.2376 265.752 47.0962 268.192 47.0949C270.632 47.0962 272.713 46.2376 274.397 44.5269C276.089 42.8176 276.937 40.6229 276.936 37.9776C276.937 35.3322 276.089 33.1376 274.397 31.4269C272.713 29.7176 270.632 28.8589 268.192 28.8602C265.752 28.8589 263.675 29.7176 261.988 31.4269C260.3 33.1376 259.451 35.3322 259.452 37.9776C259.451 40.6229 260.3 42.8176 261.987 44.5269L262.083 44.4336L262.177 44.3402C260.54 42.6789 259.72 40.5669 259.719 37.9776C259.72 35.3882 260.54 33.2762 262.177 31.6149C263.821 29.9536 265.815 29.1282 268.192 29.1269C270.571 29.1282 272.568 29.9536 274.208 31.6149C275.848 33.2762 276.669 35.3882 276.669 37.9776C276.669 40.5669 275.848 42.6789 274.208 44.3402C272.568 46.0016 270.571 46.8269 268.192 46.8282C265.815 46.8269 263.821 46.0016 262.177 44.3402L262.083 44.4336ZM276.441 46.3176L276.345 46.2242C274.156 48.4736 271.449 49.5909 268.192 49.5922C264.935 49.5909 262.228 48.4736 260.044 46.2242C257.856 43.9749 256.769 41.2362 256.768 37.9776C256.769 34.7202 257.856 31.9802 260.044 29.7309C262.228 27.4816 264.936 26.3629 268.192 26.3602C271.431 26.3629 274.131 27.4869 276.331 29.7456C278.525 32.0056 279.62 34.7402 279.621 37.9776C279.62 41.2349 278.529 43.9749 276.345 46.2242L276.441 46.3176L276.536 46.4109C278.767 44.1162 279.888 41.2949 279.888 37.9776C279.888 34.6802 278.764 31.8642 276.521 29.5589C274.277 27.2522 271.493 26.0922 268.192 26.0936C264.875 26.0922 262.083 27.2469 259.852 29.5456C257.617 31.8389 256.5 34.6602 256.501 37.9776C256.5 41.2949 257.617 44.1162 259.852 46.4109C262.083 48.7082 264.875 49.8602 268.192 49.8589C271.511 49.8602 274.303 48.7082 276.536 46.4109L276.441 46.3176Z" fill="white"/>
<path d="M283.811 49.2241V26.7308H287.328L298.26 44.2295H298.385L298.26 39.8935V26.7308H301.152V49.2241H298.136L286.699 30.8788H286.575L286.699 35.2135V49.2241H283.811Z" fill="white"/>
<path d="M283.811 49.2241H283.944V26.8641H287.255L298.187 44.3628H298.385H298.523L298.393 39.8921V26.8641H301.019V49.0908H298.209L286.773 30.7454H286.575H286.437L286.565 35.2148V49.0908H283.811V49.2241V49.3574H286.832V35.2121L286.708 30.8748L286.575 30.8788V31.0121H286.625L298.061 49.3574H301.285V26.5974H298.127V39.8961L298.252 44.2321L298.385 44.2294V44.0961H298.335L287.403 26.5974H283.677V49.3574H283.811V49.2241Z" fill="white"/>
<path d="M401.38 112.955H408.373V66.0895H401.38V112.955ZM464.387 82.9718L456.368 103.291H456.127L447.805 82.9718H440.269L452.749 111.37L445.635 127.167H452.931L472.164 82.9718H464.387ZM424.713 107.632C422.421 107.632 419.227 106.487 419.227 103.652C419.227 100.035 423.205 98.6483 426.643 98.6483C429.717 98.6483 431.164 99.3109 433.033 100.216C432.491 104.556 428.753 107.632 424.713 107.632ZM425.557 81.9467C420.492 81.9467 415.247 84.1775 413.076 89.1218L419.287 91.7145C420.613 89.1218 423.085 88.2775 425.677 88.2775C429.296 88.2775 432.973 90.4478 433.033 94.3067V94.789C431.768 94.0655 429.055 92.9801 425.739 92.9801C419.045 92.9801 412.232 96.6587 412.232 103.532C412.232 109.803 417.719 113.842 423.869 113.842C428.572 113.842 431.164 111.732 432.793 109.26H433.033V112.878H439.787V94.9098C439.787 86.5895 433.576 81.9467 425.557 81.9467ZM382.327 88.677H372.379V72.6119H382.327C387.556 72.6119 390.527 76.9421 390.527 80.6442C390.527 84.2765 387.556 88.677 382.327 88.677ZM382.145 66.0895H365.384V112.955H372.379V95.1994H382.145C389.9 95.1994 397.521 89.5858 397.521 80.6442C397.521 71.7025 389.9 66.0895 382.145 66.0895ZM290.744 107.64C285.913 107.64 281.867 103.594 281.867 98.0374C281.867 92.4207 285.913 88.3139 290.744 88.3139C295.516 88.3139 299.26 92.4207 299.26 98.0374C299.26 103.594 295.516 107.64 290.744 107.64ZM298.777 85.5962H298.536C296.965 83.7238 293.945 82.0327 290.14 82.0327C282.168 82.0327 274.86 89.039 274.86 98.0374C274.86 106.976 282.168 113.922 290.14 113.922C293.945 113.922 296.965 112.231 298.536 110.297H298.777V112.594C298.777 118.694 295.516 121.955 290.261 121.955C285.973 121.955 283.316 118.875 282.229 116.278L276.128 118.813C277.88 123.042 282.531 128.236 290.261 128.236C298.475 128.236 305.421 123.404 305.421 111.627V82.9989H298.777V85.5962ZM310.252 112.955H317.259V66.0885H310.252V112.955ZM327.587 97.4947C327.405 91.3338 332.357 88.1931 335.92 88.1931C338.699 88.1931 341.055 89.5822 341.84 91.5754L327.587 97.4947ZM349.328 92.1791C348 88.6161 343.953 82.0327 335.679 82.0327C327.465 82.0327 320.641 88.4953 320.641 97.9775C320.641 106.916 327.405 113.922 336.464 113.922C343.772 113.922 348 109.452 349.751 106.856L344.316 103.232C342.504 105.89 340.028 107.64 336.464 107.64C332.901 107.64 330.364 106.009 328.733 102.809L350.053 93.9915L349.328 92.1791ZM179.473 86.9249V93.689H195.66C195.176 97.4947 193.909 100.272 191.976 102.206C189.62 104.56 185.936 107.158 179.473 107.158C169.508 107.158 161.717 99.1243 161.717 89.1593C161.717 79.1942 169.508 71.1614 179.473 71.1614C184.849 71.1614 188.775 73.2754 191.673 75.9931L196.445 71.2218C192.399 67.3567 187.024 64.3967 179.473 64.3967C165.824 64.3967 154.349 75.5103 154.349 89.1593C154.349 102.809 165.824 113.922 179.473 113.922C186.843 113.922 192.399 111.506 196.747 106.976C201.216 102.507 202.605 96.2259 202.605 91.1525C202.605 89.5822 202.485 88.1333 202.243 86.9249H179.473ZM221.007 107.64C216.175 107.64 212.008 103.655 212.008 97.9775C212.008 92.2395 216.175 88.3139 221.007 88.3139C225.839 88.3139 230.005 92.2395 230.005 97.9775C230.005 103.655 225.839 107.64 221.007 107.64ZM221.007 82.0327C212.188 82.0327 205.001 88.7363 205.001 97.9775C205.001 107.158 212.188 113.922 221.007 113.922C229.824 113.922 237.011 107.158 237.011 97.9775C237.011 88.7363 229.824 82.0327 221.007 82.0327ZM255.921 107.64C251.089 107.64 246.923 103.655 246.923 97.9775C246.923 92.2395 251.089 88.3139 255.921 88.3139C260.753 88.3139 264.92 92.2395 264.92 97.9775C264.92 103.655 260.753 107.64 255.921 107.64ZM255.921 82.0327C247.103 82.0327 239.916 88.7363 239.916 97.9775C239.916 107.158 247.103 113.922 255.921 113.922C264.739 113.922 271.927 107.158 271.927 97.9775C271.927 88.7363 264.739 82.0327 255.921 82.0327Z" fill="white"/>
<mask id="mask0_140765_12" style="mask-type:luminance" maskUnits="userSpaceOnUse" x="37" y="29" width="50" height="93">
<path d="M39.888 121.914L39.6098 121.646C38.5197 120.492 37.8745 118.701 37.8745 116.379V116.926V34.015C37.8745 34.0084 37.8745 34.0017 37.875 33.9937C37.8745 34.0017 37.8745 34.0097 37.8745 34.0164V34.5644C37.8745 32.051 38.6265 30.1577 39.8849 29.0231L86.3317 75.4704L39.888 121.914Z" fill="white"/>
</mask>
<g mask="url(#mask0_140765_12)">
<path d="M39.888 121.914L39.6098 121.646C38.5197 120.492 37.8745 118.701 37.8745 116.379V116.926V34.015C37.8745 34.0084 37.8745 34.0017 37.875 33.9937C37.8745 34.0017 37.8745 34.0097 37.8745 34.0164V34.5644C37.8745 32.051 38.6265 30.1577 39.8849 29.0231L86.3317 75.4704L39.888 121.914Z" fill="url(#paint0_linear_140765_12)"/>
</g>
<mask id="mask1_140765_12" style="mask-type:luminance" maskUnits="userSpaceOnUse" x="86" y="59" width="39" height="33">
<path d="M101.812 91.5063L102.165 91.3053L120.508 80.8829C122.196 79.9236 123.34 78.7678 123.94 77.5422C123.34 78.7687 122.196 79.925 120.508 80.885L102.165 91.3069L101.812 91.5063ZM101.816 90.9563L86.3317 75.4703L101.816 59.9845L120.508 70.6048C122.883 71.9537 124.215 73.6912 124.437 75.4673C124.437 75.4698 124.437 75.4725 124.437 75.4745C124.215 77.2474 122.883 78.986 120.508 80.335L101.816 90.9563Z" fill="white"/>
</mask>
<g mask="url(#mask1_140765_12)">
<path d="M101.812 91.5063L102.165 91.3053L120.508 80.8829C122.196 79.9236 123.34 78.7678 123.94 77.5422C123.34 78.7687 122.196 79.925 120.508 80.885L102.165 91.3069L101.812 91.5063ZM101.816 90.9563L86.3317 75.4703L101.816 59.9845L120.508 70.6048C122.883 71.9537 124.215 73.6912 124.437 75.4673C124.437 75.4698 124.437 75.4725 124.437 75.4745C124.215 77.2474 122.883 78.986 120.508 80.335L101.816 90.9563Z" fill="url(#paint1_linear_140765_12)"/>
</g>
<mask id="mask2_140765_12" style="mask-type:luminance" maskUnits="userSpaceOnUse" x="39" y="75" width="63" height="49">
<path d="M43.1989 123.682C41.9021 123.682 40.7703 123.259 39.8875 122.463L39.8891 122.461C40.7719 123.259 41.9047 123.682 43.2027 123.682C43.4005 123.682 43.6021 123.672 43.8079 123.652C43.6011 123.672 43.3979 123.682 43.1989 123.682ZM43.2016 123.134C41.9041 123.134 40.7719 122.711 39.8891 121.915L39.888 121.913L86.3317 75.4702L101.816 90.9562L47.4005 121.875C45.8953 122.73 44.4693 123.134 43.2016 123.134ZM39.8729 122.449C39.7912 122.376 39.712 122.299 39.6344 122.218L39.8729 122.449Z" fill="white"/>
</mask>
<g mask="url(#mask2_140765_12)">
<path d="M43.1989 123.682C41.9021 123.682 40.7703 123.259 39.8875 122.463L39.8891 122.461C40.7719 123.259 41.9047 123.682 43.2027 123.682C43.4005 123.682 43.6021 123.672 43.8079 123.652C43.6011 123.672 43.3979 123.682 43.1989 123.682ZM43.2016 123.134C41.9041 123.134 40.7719 122.711 39.8891 121.915L39.888 121.913L86.3317 75.4702L101.816 90.9562L47.4005 121.875C45.8953 122.73 44.4693 123.134 43.2016 123.134ZM39.8729 122.449C39.7912 122.376 39.712 122.299 39.6344 122.218L39.8729 122.449Z" fill="url(#paint2_linear_140765_12)"/>
</g>
<mask id="mask3_140765_12" style="mask-type:luminance" maskUnits="userSpaceOnUse" x="39" y="27" width="64" height="49">
<path d="M86.3317 75.4702L39.8849 29.0229C40.7666 28.2269 41.8978 27.8056 43.1942 27.8056C44.4645 27.8056 45.8926 28.2109 47.4005 29.0669L101.816 59.9844L86.3317 75.4702ZM102.165 59.6353L47.4005 28.5202C45.8926 27.6629 44.464 27.2575 43.1937 27.2575C43.1833 27.2575 43.1729 27.2575 43.162 27.2575C43.1745 27.2575 43.1864 27.2575 43.1989 27.2575C44.4672 27.2575 45.8942 27.6629 47.4005 28.5176L102.165 59.6349" fill="white"/>
</mask>
<g mask="url(#mask3_140765_12)">
<path d="M86.3317 75.4702L39.8849 29.0229C40.7666 28.2269 41.8978 27.8056 43.1942 27.8056C44.4645 27.8056 45.8926 28.2109 47.4005 29.0669L101.816 59.9844L86.3317 75.4702ZM102.165 59.6353L47.4005 28.5202C45.8926 27.6629 44.464 27.2575 43.1937 27.2575C43.1833 27.2575 43.1729 27.2575 43.162 27.2575C43.1745 27.2575 43.1864 27.2575 43.1989 27.2575C44.4672 27.2575 45.8942 27.6629 47.4005 28.5176L102.165 59.6349" fill="url(#paint3_linear_140765_12)"/>
</g>
<path d="M43.8079 123.652C44.9177 123.544 46.1307 123.143 47.4005 122.422L101.812 91.5056V91.5061L47.4005 122.422C46.1307 123.144 44.9177 123.544 43.8079 123.652ZM39.8869 122.464L39.8729 122.449C39.8776 122.455 39.8828 122.459 39.8875 122.463L39.8869 122.464ZM39.6344 122.218L39.6099 122.194L39.6104 122.192C39.6188 122.201 39.6265 122.209 39.6344 122.218Z" fill="#100F0D"/>
<mask id="mask4_140765_12" style="mask-type:luminance" maskUnits="userSpaceOnUse" x="101" y="91" width="2" height="1">
<path d="M101.812 91.5063L102.165 91.3053L101.812 91.5058" fill="white"/>
</mask>
<g mask="url(#mask4_140765_12)">
<path d="M101.812 91.5063L102.165 91.3053L101.812 91.5058" fill="url(#paint4_linear_140765_12)"/>
</g>
<mask id="mask5_140765_12" style="mask-type:luminance" maskUnits="userSpaceOnUse" x="39" y="90" width="64" height="34">
<path d="M43.2026 123.682C41.9046 123.682 40.7718 123.259 39.889 122.461L39.8874 122.463C39.8828 122.459 39.8776 122.455 39.8729 122.449L39.6344 122.218C39.6265 122.209 39.6188 122.202 39.6104 122.192L39.889 121.915C40.7718 122.711 41.9041 123.134 43.2016 123.134C44.4693 123.134 45.8953 122.73 47.4005 121.875L101.816 90.9562L102.165 91.3051L101.812 91.5056L47.4005 122.422C46.1306 123.143 44.9177 123.544 43.8078 123.652C43.6021 123.672 43.4005 123.682 43.2026 123.682Z" fill="white"/>
</mask>
<g mask="url(#mask5_140765_12)">
<path d="M43.2026 123.682C41.9046 123.682 40.7718 123.259 39.889 122.461L39.8874 122.463C39.8828 122.459 39.8776 122.455 39.8729 122.449L39.6344 122.218C39.6265 122.209 39.6188 122.202 39.6104 122.192L39.889 121.915C40.7718 122.711 41.9041 123.134 43.2016 123.134C44.4693 123.134 45.8953 122.73 47.4005 121.875L101.816 90.9562L102.165 91.3051L101.812 91.5056L47.4005 122.422C46.1306 123.143 44.9177 123.544 43.8078 123.652C43.6021 123.672 43.4005 123.682 43.2026 123.682Z" fill="url(#paint5_linear_140765_12)"/>
</g>
<path d="M39.6098 122.194C38.5197 121.039 37.8745 119.249 37.8745 116.927V116.926C37.8745 119.249 38.5197 121.038 39.6098 122.192H39.6104L39.6098 122.194Z" fill="#100F0D"/>
<mask id="mask6_140765_12" style="mask-type:luminance" maskUnits="userSpaceOnUse" x="37" y="116" width="3" height="7">
<path d="M39.6098 122.192C38.5197 121.038 37.8745 119.249 37.8745 116.926V116.379C37.8745 118.701 38.5197 120.492 39.6098 121.646L39.888 121.914L39.6098 122.192Z" fill="white"/>
</mask>
<g mask="url(#mask6_140765_12)">
<path d="M39.6098 122.192C38.5197 121.038 37.8745 119.249 37.8745 116.926V116.379C37.8745 118.701 38.5197 120.492 39.6098 121.646L39.888 121.914L39.6098 122.192Z" fill="url(#paint6_linear_140765_12)"/>
</g>
<mask id="mask7_140765_12" style="mask-type:luminance" maskUnits="userSpaceOnUse" x="39" y="121" width="1" height="2">
<path d="M39.6104 122.192H39.6099L39.888 121.914L39.8891 121.915L39.6104 122.192Z" fill="white"/>
</mask>
<g mask="url(#mask7_140765_12)">
<path d="M39.6104 122.192H39.6099L39.888 121.914L39.8891 121.915L39.6104 122.192Z" fill="url(#paint7_linear_140765_12)"/>
</g>
<path d="M123.94 77.542C124.271 76.8671 124.437 76.1707 124.437 75.4743C124.437 75.4733 124.437 75.4728 124.437 75.4717C124.437 76.1685 124.272 76.866 123.94 77.542Z" fill="#100F0D"/>
<mask id="mask8_140765_12" style="mask-type:luminance" maskUnits="userSpaceOnUse" x="101" y="75" width="24" height="17">
<path d="M102.165 91.3052L101.816 90.9562L120.508 80.3349C122.883 78.9858 124.215 77.2473 124.437 75.4744C124.437 76.1708 124.271 76.8672 123.94 77.5421C123.34 78.7677 122.196 79.9234 120.508 80.8828L102.165 91.3052Z" fill="white"/>
</mask>
<g mask="url(#mask8_140765_12)">
<path d="M102.165 91.3052L101.816 90.9562L120.508 80.3349C122.883 78.9858 124.215 77.2473 124.437 75.4744C124.437 76.1708 124.271 76.8672 123.94 77.5421C123.34 78.7677 122.196 79.9234 120.508 80.8828L102.165 91.3052Z" fill="url(#paint8_linear_140765_12)"/>
</g>
<path d="M124.437 75.4702C124.437 75.4691 124.437 75.4682 124.437 75.4672C124.436 73.5062 123.125 71.5462 120.508 70.0587L102.165 59.6364L102.164 59.6358L102.165 59.6349L120.508 70.0572C123.128 71.5453 124.44 73.5087 124.437 75.4702Z" fill="#3A3A3B"/>
<mask id="mask9_140765_12" style="mask-type:luminance" maskUnits="userSpaceOnUse" x="101" y="59" width="24" height="17">
<path d="M124.437 75.4673C124.215 73.6912 122.883 71.9537 120.508 70.6048L101.816 59.9845L102.164 59.6359L102.165 59.6365L120.508 70.0589C123.125 71.5463 124.436 73.5064 124.437 75.4673Z" fill="white"/>
</mask>
<g mask="url(#mask9_140765_12)">
<path d="M124.437 75.4673C124.215 73.6912 122.883 71.9537 120.508 70.6048L101.816 59.9845L102.164 59.6359L102.165 59.6365L120.508 70.0589C123.125 71.5463 124.436 73.5064 124.437 75.4673Z" fill="url(#paint9_linear_140765_12)"/>
</g>
<path d="M37.8937 33.335C37.8937 33.3323 37.8937 33.3323 37.8942 33.3297C37.8937 33.331 37.8937 33.3323 37.8937 33.335ZM37.8973 33.271C38.1363 29.4683 40.2213 27.2737 43.1619 27.2577C41.8806 27.2657 40.7619 27.687 39.8874 28.4763H39.8869L39.8745 28.4883C39.7833 28.571 39.6953 28.6577 39.6098 28.7483C38.639 29.775 38.0213 31.3083 37.8973 33.271Z" fill="#3A3A3B"/>
<mask id="mask10_140765_12" style="mask-type:luminance" maskUnits="userSpaceOnUse" x="37" y="28" width="3" height="7">
<path d="M37.8745 34.5645V34.0165C37.8745 34.0098 37.8745 34.0018 37.875 33.9938V33.9924C37.875 33.7684 37.8817 33.5485 37.8937 33.3351C37.8937 33.3325 37.8937 33.3311 37.8942 33.3298C37.8942 33.3258 37.8948 33.3205 37.8953 33.3151C37.8953 33.3111 37.8953 33.3071 37.8958 33.3031C37.8958 33.2991 37.8964 33.2964 37.8964 33.2938C37.8969 33.2871 37.8969 33.2805 37.8973 33.2738C37.8973 33.2725 37.8973 33.2725 37.8973 33.2711C38.0213 31.3085 38.639 29.7751 39.6098 28.7485L39.8849 29.0231C38.6265 30.1578 37.8745 32.0511 37.8745 34.5645ZM39.8745 28.4885L39.8869 28.4764C39.8833 28.4804 39.8786 28.4845 39.8745 28.4885Z" fill="white"/>
</mask>
<g mask="url(#mask10_140765_12)">
<path d="M37.8745 34.5645V34.0165C37.8745 34.0098 37.8745 34.0018 37.875 33.9938V33.9924C37.875 33.7684 37.8817 33.5485 37.8937 33.3351C37.8937 33.3325 37.8937 33.3311 37.8942 33.3298C37.8942 33.3258 37.8948 33.3205 37.8953 33.3151C37.8953 33.3111 37.8953 33.3071 37.8958 33.3031C37.8958 33.2991 37.8964 33.2964 37.8964 33.2938C37.8969 33.2871 37.8969 33.2805 37.8973 33.2738C37.8973 33.2725 37.8973 33.2725 37.8973 33.2711C38.0213 31.3085 38.639 29.7751 39.6098 28.7485L39.8849 29.0231C38.6265 30.1578 37.8745 32.0511 37.8745 34.5645ZM39.8745 28.4885L39.8869 28.4764C39.8833 28.4804 39.8786 28.4845 39.8745 28.4885Z" fill="url(#paint10_linear_140765_12)"/>
</g>
<mask id="mask11_140765_12" style="mask-type:luminance" maskUnits="userSpaceOnUse" x="39" y="27" width="64" height="33">
<path d="M101.816 59.9844L47.4005 29.0669C45.8927 28.2109 44.4645 27.8056 43.1943 27.8056C41.8979 27.8056 40.7667 28.2269 39.8849 29.0229L39.6099 28.7482C39.6953 28.6576 39.7833 28.5709 39.8745 28.4882C39.8787 28.4842 39.8833 28.4802 39.8875 28.4762C40.762 27.6869 41.8807 27.2656 43.162 27.2576C43.1729 27.2576 43.1833 27.2576 43.1937 27.2576C44.464 27.2576 45.8927 27.6629 47.4005 28.5202L102.165 59.6353L102.164 59.6358L101.816 59.9844Z" fill="white"/>
</mask>
<g mask="url(#mask11_140765_12)">
<path d="M101.816 59.9844L47.4005 29.0669C45.8927 28.2109 44.4645 27.8056 43.1943 27.8056C41.8979 27.8056 40.7667 28.2269 39.8849 29.0229L39.6099 28.7482C39.6953 28.6576 39.7833 28.5709 39.8745 28.4882C39.8787 28.4842 39.8833 28.4802 39.8875 28.4762C40.762 27.6869 41.8807 27.2656 43.162 27.2576C43.1729 27.2576 43.1833 27.2576 43.1937 27.2576C44.464 27.2576 45.8927 27.6629 47.4005 28.5202L102.165 59.6353L102.164 59.6358L101.816 59.9844Z" fill="url(#paint11_linear_140765_12)"/>
</g>
<defs>
<linearGradient id="paint0_linear_140765_12" x1="82.213" y1="33.1404" x2="19.298" y2="96.0554" gradientUnits="userSpaceOnUse">
<stop stop-color="#5797D7"/>
<stop offset="0.00657445" stop-color="#5898D8"/>
<stop offset="0.2601" stop-color="#60BFEE"/>
<stop offset="0.5122" stop-color="#63CDF4"/>
<stop offset="0.7604" stop-color="#6CCFEC"/>
<stop offset="1" stop-color="#6FD0EA"/>
</linearGradient>
<linearGradient id="paint1_linear_140765_12" x1="127.329" y1="75.4719" x2="36.6182" y2="75.4719" gradientUnits="userSpaceOnUse">
<stop stop-color="#F9E105"/>
<stop offset="0.4087" stop-color="#FAB60A"/>
<stop offset="0.7754" stop-color="#F89B0F"/>
<stop offset="1" stop-color="#F79110"/>
</linearGradient>
<linearGradient id="paint2_linear_140765_12" x1="93.5617" y1="84.074" x2="8.24386" y2="169.392" gradientUnits="userSpaceOnUse">
<stop stop-color="#EF2A43"/>
<stop offset="1" stop-color="#C31362"/>
</linearGradient>
<linearGradient id="paint3_linear_140765_12" x1="27.8454" y1="1.14954" x2="65.9434" y2="39.2475" gradientUnits="userSpaceOnUse">
<stop stop-color="#3DA56B"/>
<stop offset="0.0685" stop-color="#3CAD6A"/>
<stop offset="0.4762" stop-color="#4EBF65"/>
<stop offset="0.8009" stop-color="#5AC35D"/>
<stop offset="1" stop-color="#60C55A"/>
</linearGradient>
<linearGradient id="paint4_linear_140765_12" x1="127.329" y1="75.472" x2="36.6176" y2="75.472" gradientUnits="userSpaceOnUse">
<stop stop-color="#C3B218"/>
<stop offset="0.4087" stop-color="#C6931A"/>
<stop offset="0.7754" stop-color="#C97D1B"/>
<stop offset="1" stop-color="#C9741B"/>
</linearGradient>
<linearGradient id="paint5_linear_140765_12" x1="93.5617" y1="84.074" x2="8.24382" y2="169.392" gradientUnits="userSpaceOnUse">
<stop stop-color="#CD2334"/>
<stop offset="1" stop-color="#99164D"/>
</linearGradient>
<linearGradient id="paint6_linear_140765_12" x1="82.2129" y1="33.1405" x2="19.2978" y2="96.0553" gradientUnits="userSpaceOnUse">
<stop stop-color="#4688CF"/>
<stop offset="0.00657445" stop-color="#4688CF"/>
<stop offset="0.2601" stop-color="#4AAAE3"/>
<stop offset="0.5122" stop-color="#4CBEE4"/>
<stop offset="0.7604" stop-color="#53C7DF"/>
<stop offset="1" stop-color="#54C7DC"/>
</linearGradient>
<linearGradient id="paint7_linear_140765_12" x1="93.5631" y1="84.0744" x2="8.24543" y2="169.395" gradientUnits="userSpaceOnUse">
<stop stop-color="#E12439"/>
<stop offset="1" stop-color="#AB1556"/>
</linearGradient>
<linearGradient id="paint8_linear_140765_12" x1="127.329" y1="75.4718" x2="36.6182" y2="75.4718" gradientUnits="userSpaceOnUse">
<stop stop-color="#D8C411"/>
<stop offset="0.4087" stop-color="#DBA114"/>
<stop offset="0.7754" stop-color="#DD8917"/>
<stop offset="1" stop-color="#DE7F18"/>
</linearGradient>
<linearGradient id="paint9_linear_140765_12" x1="127.329" y1="75.472" x2="36.6182" y2="75.472" gradientUnits="userSpaceOnUse">
<stop stop-color="#F8EA27"/>
<stop offset="0.4087" stop-color="#FCCB28"/>
<stop offset="0.7754" stop-color="#FAB42A"/>
<stop offset="1" stop-color="#F9AB2B"/>
</linearGradient>
<linearGradient id="paint10_linear_140765_12" x1="82.2129" y1="33.1405" x2="19.2978" y2="96.0553" gradientUnits="userSpaceOnUse">
<stop stop-color="#6CB7E8"/>
<stop offset="0.00657445" stop-color="#6CB8E8"/>
<stop offset="0.2601" stop-color="#6CD0F6"/>
<stop offset="0.5122" stop-color="#75D2F0"/>
<stop offset="0.7604" stop-color="#7DD5EB"/>
<stop offset="1" stop-color="#7ED5E9"/>
</linearGradient>
<linearGradient id="paint11_linear_140765_12" x1="27.8455" y1="1.14956" x2="65.9435" y2="39.2476" gradientUnits="userSpaceOnUse">
<stop stop-color="#64BF8C"/>
<stop offset="0.0685" stop-color="#63C58C"/>
<stop offset="0.4762" stop-color="#69C982"/>
<stop offset="0.8009" stop-color="#6FCB7D"/>
<stop offset="1" stop-color="#70CB79"/>
</linearGradient>
</defs>
</svg>
