<svg width="49" height="51" viewBox="0 0 49 51" fill="none" xmlns="http://www.w3.org/2000/svg">
<g filter="url(#filter0_d_1_4)">
<path d="M14.9393 47.0607C15.5251 47.6464 16.4749 47.6464 17.0607 47.0607L26.6066 37.5147C27.1924 36.9289 27.1924 35.9792 26.6066 35.3934C26.0208 34.8076 25.0711 34.8076 24.4853 35.3934L16 43.8787L7.51472 35.3934C6.92893 34.8076 5.97918 34.8076 5.3934 35.3934C4.80761 35.9792 4.80761 36.9289 5.3934 37.5147L14.9393 47.0607ZM14.5 7L14.5 46H17.5L17.5 7H14.5Z" fill="#922487"/>
<path d="M34.0607 5.93934C33.4749 5.35356 32.5251 5.35356 31.9393 5.93934L22.3934 15.4853C21.8076 16.0711 21.8076 17.0208 22.3934 17.6066C22.9792 18.1924 23.9289 18.1924 24.5147 17.6066L33 9.12132L41.4853 17.6066C42.0711 18.1924 43.0208 18.1924 43.6066 17.6066C44.1924 17.0208 44.1924 16.0711 43.6066 15.4853L34.0607 5.93934ZM34.5 46V7H31.5L31.5 46H34.5Z" fill="#922487"/>
</g>
<defs>
<filter id="filter0_d_1_4" x="0.954071" y="0.5" width="47.0919" height="50" filterUnits="userSpaceOnUse" color-interpolation-filters="sRGB">
<feFlood flood-opacity="0" result="BackgroundImageFix"/>
<feColorMatrix in="SourceAlpha" type="matrix" values="0 0 0 0 0 0 0 0 0 0 0 0 0 0 0 0 0 0 127 0" result="hardAlpha"/>
<feOffset dy="-1"/>
<feGaussianBlur stdDeviation="2"/>
<feComposite in2="hardAlpha" operator="out"/>
<feColorMatrix type="matrix" values="0 0 0 0 0.841667 0 0 0 0 0.208079 0 0 0 0 0.702277 0 0 0 0.25 0"/>
<feBlend mode="normal" in2="BackgroundImageFix" result="effect1_dropShadow_1_4"/>
<feBlend mode="normal" in="SourceGraphic" in2="effect1_dropShadow_1_4" result="shape"/>
</filter>
</defs>
</svg>
